<svg data-v-423bf9ae="" xmlns="http://www.w3.org/2000/svg" viewBox="0 0 449.5737249050461 60" class="font"><!----><!----><!----><g data-v-423bf9ae="" id="d44d9467-4eba-46f1-ba69-8c12ff87cddd" fill="black" transform="matrix(6.061263749815025,0,0,6.061263749815025,-2.9670267103955723,-32.73082435021113)"><path d="M5.28 8.36C5.28 9.97 3.56 9.77 2.58 9.79C2.53 9.74 2.48 9.73 2.45 9.69C2.44 9.51 2.30 8.50 2.30 8.05C2.30 7.95 2.31 7.53 2.35 7.31C2.66 7.27 3.25 7.17 3.36 7.17C3.68 7.17 5.28 7.39 5.28 8.36ZM7.08 8.39C7.08 7.21 6.79 6.15 5.04 5.75C4.70 5.68 3.91 5.54 3.81 5.54C3.70 5.54 3.49 5.61 3.36 5.57C2.98 5.47 1.82 5.68 1.60 5.68C1.48 5.68 1.01 5.59 0.90 5.59C0.78 5.59 0.67 5.63 0.60 5.68C0.49 6.27 0.49 7.36 0.49 7.46C0.49 7.57 0.48 8.64 0.55 9.18C0.56 9.31 0.63 9.44 0.63 9.55L0.63 10.98C0.63 12.60 0.62 11.37 0.73 14.64C0.73 14.78 0.77 15.02 0.77 15.20L2.14 15.20C2.52 15.09 2.25 14.64 2.25 14.42L2.25 12.60C2.25 12.49 2.34 11.80 2.35 11.40C2.48 11.26 2.60 11.23 2.70 11.23C2.80 11.23 3.78 11.45 3.88 11.45C5.11 11.45 7.08 10.04 7.08 8.39ZM13.17 15.22C13.13 14.13 13.08 13.78 13.08 13.50C12.89 13.54 12.64 13.58 12.54 13.58C12.43 13.58 11.62 13.50 11.52 13.50C11.40 13.50 10.47 13.58 10.36 13.58C10.26 13.58 9.81 13.65 9.77 13.43C9.69 12.98 9.72 12.29 9.72 12.19C9.72 12.08 9.86 10.79 9.86 10.70L9.86 9.31C9.86 9.20 9.65 7.04 9.56 5.95C9.56 5.85 9.46 5.74 9.44 5.71C9.37 5.67 8.68 5.52 8.41 5.52C8.19 5.52 7.94 5.59 7.94 5.84C7.94 5.94 8.04 6.01 8.04 6.03C8.04 6.40 8.04 6.87 8.08 7.18L8.12 10.46C8.12 11.83 8.15 13.20 8.11 14.56C8.11 14.69 8.12 14.88 8.13 15.02C8.19 15.13 8.78 15.22 8.99 15.22C9.10 15.22 11.80 15.22 13.17 15.22ZM18.75 12.36C18.14 12.39 17.33 12.29 16.80 12.32C17.25 11.52 17.30 10.61 17.70 9.72C17.91 10.14 18.12 10.67 18.24 11.09C18.37 11.48 18.56 11.94 18.75 12.36ZM21.64 15.12C20.64 12.84 19.95 10.79 19.25 8.89C19.04 8.34 18.62 7.60 18.48 7.21C18.33 6.80 18.24 6.27 18.07 5.91C18.00 5.75 17.81 5.53 17.70 5.47C17.46 6.03 17.21 6.71 17.01 7.11C16.69 7.78 16.13 8.65 16.02 9.03C15.47 10.77 14.73 13.38 13.86 15.12L15.67 15.12C15.85 14.76 15.81 14.22 16.13 14.03C16.58 13.75 17.63 14 19.42 13.96C19.54 14.34 19.71 14.80 19.92 15.12L21.64 15.12ZM30.58 5.56C30.07 5.50 29.23 5.40 29.12 5.40C28.88 5.40 28.83 5.75 28.83 5.95C28.83 6.06 28.83 6.50 28.87 9.14C28.87 9.67 28.99 10.53 28.99 10.65C28.99 11.06 29.04 11.79 28.88 12.28C27.89 11.06 26.82 9.73 26.17 8.62C25.93 8.25 25.40 7.41 25.17 7.04C24.86 6.55 24.65 5.95 24.25 5.42C23.70 5.42 22.96 5.54 22.60 5.56C22.60 6.31 22.58 7.73 22.58 7.83L22.58 9.76C22.58 9.87 22.64 11.76 22.61 12.70C22.61 13.16 22.50 14.03 22.50 14.13C22.50 14.32 22.57 14.94 22.74 15.12C23.18 15.08 23.74 15.23 24.05 14.98C24.14 14.91 24.16 14.77 24.16 14.69C24.16 14.32 24.11 13.94 24.14 13.65C24.15 13.55 24.22 13.44 24.22 13.34L24.22 9.72C24.22 9.41 24.01 8.37 24.18 8.30C25.12 9.16 25.58 10.40 26.22 11.23C26.66 11.80 27.27 12.31 27.68 12.89C28.13 13.52 28.63 14.62 28.88 14.98C28.95 15.09 29.22 15.12 29.32 15.12C29.43 15.12 30.03 15.02 30.39 15.01C30.44 14.94 30.51 14.80 30.49 14.73C30.28 13.34 30.37 12.26 30.53 11.35L30.58 5.56ZM38.32 6.48C38.32 6.31 38.22 5.77 38.12 5.53C37.39 5.59 35.95 5.63 35.85 5.63C35.74 5.63 32.48 5.49 32.35 5.49C32.14 5.49 31.63 5.70 31.63 6.08L31.63 7.10C31.91 7.14 32.30 7.25 32.41 7.25C32.52 7.25 33.24 7.11 33.35 7.11C33.49 7.11 34.05 7.13 34.10 7.28C34.26 7.80 34.30 8.97 34.30 9.07C34.30 10.26 34.08 9.70 34.26 12.66C34.30 13.33 34.20 13.52 34.22 13.69C34.29 14.24 34.22 14.77 34.30 15.19C34.78 15.15 35.13 15.13 35.87 15.18C35.69 15.09 35.87 14.38 35.87 14.17L35.87 11.10C35.87 11.00 35.73 10.29 35.74 9.95C35.77 9.31 35.88 8.16 35.88 7.28C36.09 7.07 36.46 7.11 36.67 7.11C36.78 7.11 37.91 7.15 38.02 7.15C38.30 7.15 38.32 6.62 38.32 6.48ZM45.70 12.12C45.70 12.01 45.67 11.55 45.58 11.35C45.47 11.07 44.91 10.43 44.56 10.29C44.31 10.19 44.07 10.05 43.86 10.01C43.69 9.97 43.46 10.00 43.37 9.94C42.97 9.67 41.33 9.76 41.33 8.69C41.33 8.23 41.73 7.35 42.55 7.35C42.85 7.35 43.33 7.52 43.55 7.80C43.81 8.12 44.07 8.50 44.23 8.54C44.51 8.62 45.14 8.78 45.23 8.78C45.39 8.78 45.51 8.44 45.51 8.23C45.51 7.34 43.78 5.59 42.88 5.59C41.83 5.59 39.28 6.13 39.28 8.23C39.28 8.74 39.48 10.42 40.33 10.68C40.50 10.72 40.75 10.70 40.84 10.75C41.90 11.37 43.75 10.86 43.75 12.54C43.75 13.09 42.88 13.75 42.27 13.75C41.69 13.75 40.89 13.45 40.99 12.53C40.74 12.33 39.61 11.90 39.55 11.90C39.38 11.90 39.24 12.46 39.24 12.54C39.24 12.92 39.51 13.23 39.59 13.45C40.22 15.01 42.01 15.29 43.33 15.29C43.44 15.29 43.79 15.32 43.92 15.27C45.01 14.87 45.70 13.13 45.70 12.12ZM56.98 15.22C56.94 14.13 56.88 13.78 56.88 13.50C56.70 13.54 56.45 13.58 56.35 13.58C56.24 13.58 55.43 13.50 55.33 13.50C55.20 13.50 54.28 13.58 54.17 13.58C54.07 13.58 53.62 13.65 53.58 13.43C53.49 12.98 53.52 12.29 53.52 12.19C53.52 12.08 53.66 10.79 53.66 10.70L53.66 9.31C53.66 9.20 53.45 7.04 53.37 5.95C53.37 5.85 53.27 5.74 53.24 5.71C53.17 5.67 52.49 5.52 52.22 5.52C52.00 5.52 51.74 5.59 51.74 5.84C51.74 5.94 51.84 6.01 51.84 6.03C51.84 6.40 51.84 6.87 51.88 7.18L51.93 10.46C51.93 11.83 51.95 13.20 51.91 14.56C51.91 14.69 51.93 14.88 51.94 15.02C52.00 15.13 52.58 15.22 52.79 15.22C52.91 15.22 55.61 15.22 56.98 15.22ZM59.70 13.10C59.70 12.99 59.56 9.32 59.56 9.21L59.56 7.56C59.56 7.45 59.49 7.20 59.47 7.03C59.44 6.73 59.54 6.29 59.54 6.03C59.54 5.85 59.51 5.61 59.56 5.47C58.79 5.52 58.42 5.52 58.13 5.47C58.09 5.50 58.02 5.61 58.02 5.67C58.02 6.48 58.14 7.29 58.09 8.06C58.04 8.83 57.90 9.66 57.93 10.43C57.93 10.68 58.03 11.05 58.00 11.28C57.95 11.79 57.83 12.68 57.83 12.77C57.83 12.88 57.96 13.47 58.00 13.83C58.04 14.15 57.97 14.60 58.03 14.94C58.34 15.18 58.58 15.18 58.93 15.18C59.04 15.18 59.40 15.16 59.60 15.12C59.70 14.43 59.70 13.20 59.70 13.10ZM67.10 6.29C67.10 6.15 67.10 5.70 66.99 5.54C65.44 5.60 63.87 5.61 62.31 5.59C62.10 5.57 61.66 5.50 61.56 5.50C61.45 5.50 61.04 5.56 60.84 5.61C60.70 5.64 60.55 6.85 60.55 7.04C60.55 7.15 60.73 9.76 60.73 9.87C60.73 10.00 60.69 10.88 60.69 12.26C60.69 12.81 60.87 13.78 60.87 13.89C60.87 14 60.63 14.62 60.65 14.74L60.65 15.20L62.09 15.20C62.30 14.78 62.43 14.49 62.43 14.22C62.43 13.65 62.10 13.34 62.10 12.49C62.10 12.38 62.17 11.94 62.23 11.66C62.24 11.55 62.31 11.31 62.41 11.24C62.61 11.12 64.15 11.00 64.76 11.00C64.88 11.00 65.63 11.09 65.76 11.09L67.09 11.09C67.05 10.99 67.09 10.86 67.07 9.53L62.23 9.53C62.13 9.45 62.10 9.38 62.10 9.28C62.10 9.17 62.31 8.61 62.33 8.41C62.40 7.78 62.16 7.36 62.37 7.13C63.20 7.06 65.07 7.01 65.17 7.01C65.28 7.01 66.68 7.11 66.79 7.11C67.17 7.11 67.10 6.50 67.10 6.29ZM74.65 5.67C73.50 5.60 71.39 5.46 71.27 5.46C71.16 5.46 69.10 5.66 68.07 5.78C68.07 6.19 67.97 6.96 67.97 7.06C67.97 7.17 68.10 11.28 68.14 13.36C68.14 13.79 68.00 14.62 68.03 15.02C68.07 15.06 68.08 15.12 68.15 15.16L74.58 15.16L74.58 14.92C74.58 14.81 74.47 14.70 74.45 14.60C74.42 14.34 74.44 14.03 74.38 13.83C74.21 13.79 74.02 13.73 73.88 13.73C71.90 13.65 71.05 13.73 70.94 13.73C70.85 13.73 69.82 13.65 69.64 13.48C70.01 10.79 69.34 11.03 71.54 11.03C71.65 11.03 72.88 11.21 73.00 11.21L74.34 11.21C74.52 11.09 74.54 10.54 74.54 10.35C74.54 10.23 74.54 9.87 74.48 9.67L74.52 9.62C73.35 9.67 72.51 9.69 72.39 9.69C72.28 9.69 71.20 9.60 71.09 9.60C70.98 9.60 70.04 9.73 69.93 9.73C69.85 9.73 69.59 9.59 69.59 9.42C69.59 9.31 69.68 9.25 69.68 9.17C69.69 8.61 69.69 7.83 69.80 7.27C70.53 7.04 70.66 7.08 71.16 7.08L73.91 7.17C74.94 7.17 74.59 6.97 74.65 5.67Z"></path></g><!----><!----></svg>